<svg xmlns="http://www.w3.org/2000/svg" xmlns:xlink="http://www.w3.org/1999/xlink" viewBox="0 0 396 288"><defs><style>.cls-1{fill:url(#linear-gradient);}.cls-2{isolation:isolate;}.cls-3{clip-path:url(#clip-path);}.cls-146,.cls-4{mix-blend-mode:multiply;}.cls-5{fill:url(#linear-gradient-3);}.cls-6{fill:url(#linear-gradient-4);}.cls-7{fill:url(#linear-gradient-5);}.cls-8{fill:url(#linear-gradient-6);}.cls-9{fill:url(#linear-gradient-7);}.cls-10{fill:url(#linear-gradient-8);}.cls-11{fill:url(#linear-gradient-9);}.cls-12{fill:url(#linear-gradient-10);}.cls-13{fill:url(#linear-gradient-11);}.cls-14{fill:url(#linear-gradient-12);}.cls-15{fill:url(#linear-gradient-13);}.cls-16{fill:url(#linear-gradient-14);}.cls-17{fill:url(#linear-gradient-15);}.cls-18{fill:url(#linear-gradient-16);}.cls-19{fill:url(#linear-gradient-17);}.cls-20{fill:url(#linear-gradient-18);}.cls-21{fill:url(#linear-gradient-19);}.cls-22{fill:url(#linear-gradient-20);}.cls-23{fill:url(#linear-gradient-21);}.cls-24{fill:url(#linear-gradient-22);}.cls-25{fill:url(#linear-gradient-23);}.cls-26{fill:url(#linear-gradient-24);}.cls-27{fill:url(#linear-gradient-25);}.cls-28{fill:url(#linear-gradient-26);}.cls-29{fill:url(#linear-gradient-27);}.cls-30{fill:url(#linear-gradient-28);}.cls-31{fill:url(#linear-gradient-29);}.cls-32{fill:url(#linear-gradient-30);}.cls-33{fill:url(#linear-gradient-31);}.cls-34{fill:url(#linear-gradient-32);}.cls-35{fill:url(#linear-gradient-33);}.cls-36{fill:url(#linear-gradient-34);}.cls-37{fill:url(#linear-gradient-35);}.cls-38{fill:url(#linear-gradient-36);}.cls-39{fill:url(#linear-gradient-37);}.cls-40{fill:url(#linear-gradient-38);}.cls-41{fill:url(#linear-gradient-39);}.cls-42{fill:url(#linear-gradient-40);}.cls-43{fill:url(#linear-gradient-41);}.cls-44{fill:url(#linear-gradient-42);}.cls-45{fill:url(#linear-gradient-43);}.cls-46{fill:url(#linear-gradient-44);}.cls-47{fill:url(#linear-gradient-45);}.cls-48{fill:url(#linear-gradient-46);}.cls-49{fill:url(#linear-gradient-47);}.cls-50{fill:url(#linear-gradient-48);}.cls-51{fill:url(#linear-gradient-49);}.cls-52{fill:url(#linear-gradient-50);}.cls-53{fill:url(#linear-gradient-51);}.cls-54{fill:url(#linear-gradient-52);}.cls-55{fill:url(#linear-gradient-53);}.cls-56{fill:url(#linear-gradient-54);}.cls-57{fill:url(#linear-gradient-55);}.cls-58{fill:url(#linear-gradient-56);}.cls-59{fill:url(#linear-gradient-57);}.cls-60{fill:url(#linear-gradient-58);}.cls-61{fill:url(#linear-gradient-59);}.cls-62{fill:url(#linear-gradient-60);}.cls-63{fill:url(#linear-gradient-61);}.cls-64{fill:url(#linear-gradient-62);}.cls-65{fill:url(#linear-gradient-63);}.cls-66{fill:url(#linear-gradient-64);}.cls-67{fill:url(#linear-gradient-65);}.cls-68{fill:url(#linear-gradient-66);}.cls-69{fill:url(#linear-gradient-67);}.cls-70{fill:url(#linear-gradient-68);}.cls-71{fill:url(#linear-gradient-69);}.cls-72{fill:url(#linear-gradient-70);}.cls-73{fill:url(#linear-gradient-71);}.cls-74{fill:url(#linear-gradient-72);}.cls-75{fill:url(#linear-gradient-73);}.cls-76{fill:url(#linear-gradient-74);}.cls-77{fill:url(#linear-gradient-75);}.cls-78{fill:url(#linear-gradient-76);}.cls-79{fill:url(#linear-gradient-77);}.cls-80{fill:url(#linear-gradient-78);}.cls-81{fill:url(#linear-gradient-79);}.cls-82{fill:url(#linear-gradient-80);}.cls-83{fill:url(#linear-gradient-81);}.cls-84{fill:url(#linear-gradient-82);}.cls-85{fill:url(#linear-gradient-83);}.cls-86{fill:url(#linear-gradient-84);}.cls-87{fill:url(#linear-gradient-85);}.cls-88{fill:url(#linear-gradient-86);}.cls-89{fill:url(#linear-gradient-87);}.cls-90{fill:url(#linear-gradient-88);}.cls-91{fill:url(#linear-gradient-89);}.cls-92{fill:url(#linear-gradient-90);}.cls-93{fill:url(#linear-gradient-91);}.cls-94{fill:url(#linear-gradient-92);}.cls-95{fill:url(#linear-gradient-93);}.cls-96{fill:url(#linear-gradient-94);}.cls-97{fill:url(#linear-gradient-95);}.cls-98{fill:url(#linear-gradient-96);}.cls-99{fill:url(#linear-gradient-97);}.cls-100{fill:url(#linear-gradient-98);}.cls-101{fill:url(#linear-gradient-99);}.cls-102{fill:url(#linear-gradient-100);}.cls-103{fill:url(#linear-gradient-101);}.cls-104{fill:url(#linear-gradient-102);}.cls-105{fill:url(#linear-gradient-103);}.cls-106{fill:url(#linear-gradient-104);}.cls-107{fill:url(#linear-gradient-105);}.cls-108{fill:url(#linear-gradient-106);}.cls-109{fill:url(#linear-gradient-107);}.cls-110{fill:url(#linear-gradient-108);}.cls-111{fill:url(#linear-gradient-109);}.cls-112{fill:url(#linear-gradient-110);}.cls-113{fill:url(#linear-gradient-111);}.cls-114{fill:url(#linear-gradient-112);}.cls-115{fill:url(#linear-gradient-113);}.cls-116{fill:url(#linear-gradient-114);}.cls-117{fill:url(#linear-gradient-115);}.cls-118{fill:url(#linear-gradient-116);}.cls-119{fill:url(#linear-gradient-117);}.cls-120{fill:url(#linear-gradient-118);}.cls-121{fill:url(#linear-gradient-119);}.cls-122{fill:url(#linear-gradient-120);}.cls-123{fill:url(#linear-gradient-121);}.cls-124{fill:url(#linear-gradient-122);}.cls-125{fill:url(#linear-gradient-123);}.cls-126{fill:url(#linear-gradient-124);}.cls-127{fill:url(#linear-gradient-125);}.cls-128{fill:url(#linear-gradient-126);}.cls-129{fill:url(#linear-gradient-127);}.cls-130{fill:url(#linear-gradient-128);}.cls-131{fill:url(#linear-gradient-129);}.cls-132{fill:url(#linear-gradient-130);}.cls-133{fill:url(#linear-gradient-131);}.cls-134{fill:url(#linear-gradient-132);}.cls-135{fill:url(#linear-gradient-133);}.cls-136{fill:url(#linear-gradient-134);}.cls-137{fill:url(#linear-gradient-135);}.cls-138{fill:url(#linear-gradient-136);}.cls-139{fill:url(#linear-gradient-137);}.cls-140{fill:url(#linear-gradient-138);}.cls-141{fill:url(#linear-gradient-139);}.cls-142{fill:url(#linear-gradient-140);}.cls-143{fill:url(#linear-gradient-141);}.cls-144{fill:url(#linear-gradient-142);}.cls-145{fill:url(#linear-gradient-143);}.cls-146{opacity:0.2;}.cls-147{fill:url(#linear-gradient-144);}.cls-148{fill:url(#linear-gradient-145);}.cls-149{fill:url(#linear-gradient-146);}.cls-150{fill:url(#linear-gradient-147);}.cls-151{fill:url(#linear-gradient-148);}.cls-152{fill:url(#linear-gradient-149);}.cls-153{fill:url(#linear-gradient-150);}.cls-154{fill:url(#linear-gradient-151);}.cls-155{fill:url(#linear-gradient-152);}.cls-156{fill:url(#linear-gradient-153);}.cls-157{fill:url(#linear-gradient-154);}.cls-158{fill:url(#linear-gradient-155);}.cls-159{fill:url(#linear-gradient-156);}.cls-160{fill:url(#linear-gradient-157);}.cls-161{fill:url(#linear-gradient-158);}.cls-162{fill:url(#linear-gradient-159);}.cls-163{fill:url(#linear-gradient-160);}.cls-164{fill:url(#linear-gradient-161);}.cls-165{fill:url(#linear-gradient-162);}.cls-166{fill:url(#linear-gradient-163);}.cls-167{fill:url(#linear-gradient-164);}.cls-168{fill:url(#linear-gradient-165);}.cls-169{fill:url(#linear-gradient-166);}.cls-170{fill:url(#linear-gradient-167);}.cls-171{fill:url(#linear-gradient-168);}.cls-172{fill:url(#linear-gradient-169);}.cls-173{fill:url(#linear-gradient-170);}.cls-174{fill:url(#linear-gradient-171);}.cls-175{fill:url(#linear-gradient-172);}.cls-176{fill:url(#linear-gradient-173);}.cls-177{fill:url(#linear-gradient-174);}.cls-178{fill:url(#linear-gradient-175);}.cls-179{fill:url(#linear-gradient-176);}.cls-180{fill:url(#linear-gradient-177);}.cls-181{fill:url(#linear-gradient-178);}.cls-182{fill:url(#linear-gradient-179);}.cls-183{fill:url(#linear-gradient-180);}.cls-184{fill:url(#linear-gradient-181);}.cls-185{fill:url(#linear-gradient-182);}.cls-186{fill:url(#linear-gradient-183);}.cls-187{fill:url(#linear-gradient-184);}.cls-188{fill:url(#linear-gradient-185);}.cls-189{fill:url(#linear-gradient-186);}.cls-190{fill:url(#linear-gradient-187);}.cls-191{fill:url(#linear-gradient-188);}.cls-192{fill:url(#linear-gradient-189);}.cls-193{fill:url(#linear-gradient-190);}.cls-194{fill:url(#linear-gradient-191);}.cls-195{fill:url(#linear-gradient-192);}.cls-196{fill:url(#linear-gradient-193);}.cls-197{fill:url(#linear-gradient-194);}.cls-198{fill:url(#linear-gradient-195);}.cls-199{fill:url(#linear-gradient-196);}.cls-200{fill:url(#linear-gradient-197);}.cls-201{fill:url(#linear-gradient-198);}.cls-202{fill:url(#linear-gradient-199);}.cls-203{fill:url(#linear-gradient-200);}.cls-204{fill:url(#linear-gradient-201);}.cls-205{fill:url(#linear-gradient-202);}.cls-206{fill:url(#linear-gradient-203);}.cls-207{fill:url(#linear-gradient-204);}.cls-208{fill:url(#linear-gradient-205);}.cls-209{fill:url(#linear-gradient-206);}.cls-210{fill:url(#linear-gradient-207);}.cls-211{fill:url(#linear-gradient-208);}.cls-212{fill:url(#linear-gradient-209);}.cls-213{fill:url(#linear-gradient-210);}.cls-214{fill:url(#linear-gradient-211);}.cls-215{fill:url(#linear-gradient-212);}.cls-216{fill:url(#linear-gradient-213);}.cls-217{fill:url(#linear-gradient-214);}.cls-218{fill:url(#linear-gradient-215);}.cls-219{fill:url(#linear-gradient-216);}.cls-220{fill:url(#linear-gradient-217);}.cls-221{fill:url(#linear-gradient-218);}.cls-222{fill:url(#linear-gradient-219);}.cls-223{fill:url(#linear-gradient-220);}.cls-224{fill:url(#linear-gradient-221);}.cls-225{fill:url(#linear-gradient-222);}.cls-226{fill:url(#linear-gradient-223);}.cls-227{fill:url(#linear-gradient-224);}.cls-228{fill:url(#linear-gradient-225);}.cls-229{fill:url(#linear-gradient-226);}.cls-230{fill:url(#linear-gradient-227);}.cls-231{fill:url(#linear-gradient-228);}.cls-232{fill:url(#linear-gradient-229);}.cls-233{fill:url(#linear-gradient-230);}.cls-234{fill:url(#linear-gradient-231);}.cls-235{fill:url(#linear-gradient-232);}.cls-236{fill:url(#linear-gradient-233);}.cls-237{fill:url(#linear-gradient-234);}.cls-238{fill:url(#linear-gradient-235);}.cls-239{fill:url(#linear-gradient-236);}.cls-240{fill:url(#linear-gradient-237);}.cls-241{fill:url(#linear-gradient-238);}</style><linearGradient id="linear-gradient" x1="113.61" y1="-14.87" x2="309.61" y2="354.13" gradientUnits="userSpaceOnUse"><stop offset="0" stop-color="#fff"/><stop offset="1" stop-color="#f0f7fc"/></linearGradient><clipPath id="clip-path"><rect class="cls-1" width="396" height="288"/></clipPath><linearGradient id="linear-gradient-3" x1="439.05" y1="355.1" x2="212" y2="4.55" gradientUnits="userSpaceOnUse"><stop offset="0" stop-color="#52bbe8"/><stop offset="0.2" stop-color="#69c3eb"/><stop offset="0.6" stop-color="#a3d8f1"/><stop offset="1" stop-color="#e1eff8"/></linearGradient><linearGradient id="linear-gradient-4" x1="470.37" y1="334.82" x2="243.32" y2="-15.74" xlink:href="#linear-gradient-3"/><linearGradient id="linear-gradient-5" x1="501.69" y1="314.53" x2="274.65" y2="-36.03" xlink:href="#linear-gradient-3"/><linearGradient id="linear-gradient-6" x1="533.02" y1="294.24" x2="305.97" y2="-56.31" xlink:href="#linear-gradient-3"/><linearGradient id="linear-gradient-7" x1="560.62" y1="276.37" x2="333.57" y2="-74.19" xlink:href="#linear-gradient-3"/><linearGradient id="linear-gradient-8" x1="280.52" y1="457.77" x2="53.48" y2="107.22" xlink:href="#linear-gradient-3"/><linearGradient id="linear-gradient-9" x1="437.14" y1="356.34" x2="210.09" y2="5.78" xlink:href="#linear-gradient-3"/><linearGradient id="linear-gradient-10" x1="468.46" y1="336.05" x2="241.42" y2="-14.5" xlink:href="#linear-gradient-3"/><linearGradient id="linear-gradient-11" x1="499.79" y1="315.76" x2="272.74" y2="-34.79" xlink:href="#linear-gradient-3"/><linearGradient id="linear-gradient-12" x1="531.11" y1="295.48" x2="304.06" y2="-55.08" xlink:href="#linear-gradient-3"/><linearGradient id="linear-gradient-13" x1="466.55" y1="337.29" x2="239.51" y2="-13.27" xlink:href="#linear-gradient-3"/><linearGradient id="linear-gradient-14" x1="497.88" y1="317" x2="270.83" y2="-33.56" xlink:href="#linear-gradient-3"/><linearGradient id="linear-gradient-15" x1="525.48" y1="299.12" x2="298.44" y2="-51.43" xlink:href="#linear-gradient-3"/><linearGradient id="linear-gradient-16" x1="464.65" y1="338.52" x2="237.6" y2="-12.03" xlink:href="#linear-gradient-3"/><linearGradient id="linear-gradient-17" x1="495.97" y1="318.24" x2="268.93" y2="-32.32" xlink:href="#linear-gradient-3"/><linearGradient id="linear-gradient-18" x1="243.48" y1="481.77" x2="16.43" y2="131.21" xlink:href="#linear-gradient-3"/><linearGradient id="linear-gradient-19" x1="462.74" y1="339.76" x2="235.69" y2="-10.8" xlink:href="#linear-gradient-3"/><linearGradient id="linear-gradient-20" x1="490.34" y1="321.88" x2="263.3" y2="-28.68" xlink:href="#linear-gradient-3"/><linearGradient id="linear-gradient-21" x1="210.24" y1="503.29" x2="-16.8" y2="152.73" xlink:href="#linear-gradient-3"/><linearGradient id="linear-gradient-22" x1="241.57" y1="483" x2="14.52" y2="132.45" xlink:href="#linear-gradient-3"/><linearGradient id="linear-gradient-23" x1="272.89" y1="462.72" x2="45.85" y2="112.16" xlink:href="#linear-gradient-3"/><linearGradient id="linear-gradient-24" x1="304.21" y1="442.43" x2="77.17" y2="91.87" xlink:href="#linear-gradient-3"/><linearGradient id="linear-gradient-25" x1="208.34" y1="504.53" x2="-18.71" y2="153.97" xlink:href="#linear-gradient-3"/><linearGradient id="linear-gradient-26" x1="239.66" y1="484.24" x2="12.61" y2="133.68" xlink:href="#linear-gradient-3"/><linearGradient id="linear-gradient-27" x1="270.98" y1="463.95" x2="43.94" y2="113.4" xlink:href="#linear-gradient-3"/><linearGradient id="linear-gradient-28" x1="177.67" y1="524.39" x2="-49.38" y2="173.83" xlink:href="#linear-gradient-3"/><linearGradient id="linear-gradient-29" x1="208.99" y1="504.1" x2="-18.06" y2="153.55" xlink:href="#linear-gradient-3"/><linearGradient id="linear-gradient-30" x1="240.31" y1="483.82" x2="13.27" y2="133.26" xlink:href="#linear-gradient-3"/><linearGradient id="linear-gradient-31" x1="271.64" y1="463.53" x2="44.59" y2="112.97" xlink:href="#linear-gradient-3"/><linearGradient id="linear-gradient-32" x1="396.93" y1="382.38" x2="169.89" y2="31.82" xlink:href="#linear-gradient-3"/><linearGradient id="linear-gradient-33" x1="428.25" y1="362.09" x2="201.21" y2="11.54" xlink:href="#linear-gradient-3"/><linearGradient id="linear-gradient-34" x1="502.31" y1="314.13" x2="275.26" y2="-36.43" xlink:href="#linear-gradient-3"/><linearGradient id="linear-gradient-35" x1="543.13" y1="287.69" x2="316.09" y2="-62.87" xlink:href="#linear-gradient-3"/><linearGradient id="linear-gradient-36" x1="571.49" y1="269.32" x2="344.45" y2="-81.24" xlink:href="#linear-gradient-3"/><linearGradient id="linear-gradient-37" x1="502.47" y1="314.03" x2="275.42" y2="-36.53" xlink:href="#linear-gradient-3"/><linearGradient id="linear-gradient-38" x1="543.29" y1="287.59" x2="316.24" y2="-62.97" xlink:href="#linear-gradient-3"/><linearGradient id="linear-gradient-39" x1="499.98" y1="315.64" x2="272.94" y2="-34.92" xlink:href="#linear-gradient-3"/><linearGradient id="linear-gradient-40" x1="537.34" y1="291.44" x2="310.29" y2="-59.11" xlink:href="#linear-gradient-3"/><linearGradient id="linear-gradient-41" x1="252.56" y1="475.89" x2="25.51" y2="125.33" xlink:href="#linear-gradient-3"/><linearGradient id="linear-gradient-42" x1="293.38" y1="449.45" x2="66.33" y2="98.89" xlink:href="#linear-gradient-3"/><linearGradient id="linear-gradient-43" x1="212.65" y1="501.73" x2="-14.4" y2="151.18" xlink:href="#linear-gradient-3"/><linearGradient id="linear-gradient-44" x1="250.07" y1="477.5" x2="23.03" y2="126.94" xlink:href="#linear-gradient-3"/><linearGradient id="linear-gradient-45" x1="290.89" y1="451.06" x2="63.85" y2="100.5" xlink:href="#linear-gradient-3"/><linearGradient id="linear-gradient-46" x1="206.76" y1="505.55" x2="-20.28" y2="154.99" xlink:href="#linear-gradient-3"/><linearGradient id="linear-gradient-47" x1="247.58" y1="479.11" x2="20.54" y2="128.55" xlink:href="#linear-gradient-3"/><linearGradient id="linear-gradient-48" x1="451.7" y1="346.91" x2="224.65" y2="-3.65" xlink:href="#linear-gradient-3"/><linearGradient id="linear-gradient-49" x1="171.19" y1="528.58" x2="-55.85" y2="178.03" xlink:href="#linear-gradient-3"/><linearGradient id="linear-gradient-50" x1="204.28" y1="507.16" x2="-22.77" y2="156.6" xlink:href="#linear-gradient-3"/><linearGradient id="linear-gradient-51" x1="245.1" y1="480.72" x2="18.05" y2="130.16" xlink:href="#linear-gradient-3"/><linearGradient id="linear-gradient-52" x1="408.39" y1="374.96" x2="181.35" y2="24.4" xlink:href="#linear-gradient-3"/><linearGradient id="linear-gradient-53" x1="445.75" y1="350.76" x2="218.7" y2="0.21" xlink:href="#linear-gradient-3"/><linearGradient id="linear-gradient-54" x1="169.39" y1="529.75" x2="-57.65" y2="179.19" xlink:href="#linear-gradient-3"/><linearGradient id="linear-gradient-55" x1="210.22" y1="503.31" x2="-16.83" y2="152.75" xlink:href="#linear-gradient-3"/><linearGradient id="linear-gradient-56" x1="251.04" y1="476.87" x2="23.99" y2="126.31" xlink:href="#linear-gradient-3"/><linearGradient id="linear-gradient-57" x1="291.86" y1="450.43" x2="64.82" y2="99.87" xlink:href="#linear-gradient-3"/><linearGradient id="linear-gradient-58" x1="332.69" y1="423.99" x2="105.64" y2="73.43" xlink:href="#linear-gradient-3"/><linearGradient id="linear-gradient-59" x1="373.51" y1="397.55" x2="146.46" y2="46.99" xlink:href="#linear-gradient-3"/><linearGradient id="linear-gradient-60" x1="414.33" y1="371.11" x2="187.29" y2="20.55" xlink:href="#linear-gradient-3"/><linearGradient id="linear-gradient-61" x1="302.04" y1="443.83" x2="74.99" y2="93.28" xlink:href="#linear-gradient-3"/><linearGradient id="linear-gradient-62" x1="419.44" y1="367.81" x2="192.39" y2="17.25" xlink:href="#linear-gradient-3"/><linearGradient id="linear-gradient-63" x1="429.24" y1="361.45" x2="202.2" y2="10.9" xlink:href="#linear-gradient-3"/><linearGradient id="linear-gradient-64" x1="417.53" y1="369.04" x2="190.48" y2="18.48" xlink:href="#linear-gradient-3"/><linearGradient id="linear-gradient-65" x1="427.33" y1="362.69" x2="200.29" y2="12.13" xlink:href="#linear-gradient-3"/><linearGradient id="linear-gradient-66" x1="450.76" y1="347.52" x2="223.71" y2="-3.04" xlink:href="#linear-gradient-3"/><linearGradient id="linear-gradient-67" x1="460.57" y1="341.17" x2="233.52" y2="-9.39" xlink:href="#linear-gradient-3"/><linearGradient id="linear-gradient-68" x1="448.85" y1="348.75" x2="221.81" y2="-1.8" xlink:href="#linear-gradient-3"/><linearGradient id="linear-gradient-69" x1="482.08" y1="327.23" x2="255.04" y2="-23.33" xlink:href="#linear-gradient-3"/><linearGradient id="linear-gradient-70" x1="491.89" y1="320.88" x2="264.84" y2="-29.68" xlink:href="#linear-gradient-3"/><linearGradient id="linear-gradient-71" x1="480.17" y1="328.47" x2="253.13" y2="-22.09" xlink:href="#linear-gradient-3"/><linearGradient id="linear-gradient-72" x1="513.41" y1="306.95" x2="286.36" y2="-43.61" xlink:href="#linear-gradient-3"/><linearGradient id="linear-gradient-73" x1="523.21" y1="300.59" x2="296.17" y2="-49.96" xlink:href="#linear-gradient-3"/><linearGradient id="linear-gradient-74" x1="511.5" y1="308.18" x2="284.45" y2="-42.38" xlink:href="#linear-gradient-3"/><linearGradient id="linear-gradient-75" x1="544.73" y1="286.66" x2="317.68" y2="-63.9" xlink:href="#linear-gradient-3"/><linearGradient id="linear-gradient-76" x1="554.54" y1="280.31" x2="327.49" y2="-70.25" xlink:href="#linear-gradient-3"/><linearGradient id="linear-gradient-77" x1="542.82" y1="287.89" x2="315.78" y2="-62.67" xlink:href="#linear-gradient-3"/><linearGradient id="linear-gradient-78" x1="268.81" y1="465.36" x2="41.76" y2="114.8" xlink:href="#linear-gradient-3"/><linearGradient id="linear-gradient-79" x1="259" y1="471.71" x2="31.96" y2="121.15" xlink:href="#linear-gradient-3"/><linearGradient id="linear-gradient-80" x1="270.71" y1="464.12" x2="43.67" y2="113.57" xlink:href="#linear-gradient-3"/><linearGradient id="linear-gradient-81" x1="292.23" y1="450.19" x2="65.19" y2="99.63" xlink:href="#linear-gradient-3"/><linearGradient id="linear-gradient-82" x1="290.33" y1="451.43" x2="63.28" y2="100.87" xlink:href="#linear-gradient-3"/><linearGradient id="linear-gradient-83" x1="415.62" y1="370.28" x2="188.58" y2="19.72" xlink:href="#linear-gradient-3"/><linearGradient id="linear-gradient-84" x1="458.66" y1="342.4" x2="231.61" y2="-8.15" xlink:href="#linear-gradient-3"/><linearGradient id="linear-gradient-85" x1="446.94" y1="349.99" x2="219.9" y2="-0.57" xlink:href="#linear-gradient-3"/><linearGradient id="linear-gradient-86" x1="456.75" y1="343.64" x2="229.7" y2="-6.92" xlink:href="#linear-gradient-3"/><linearGradient id="linear-gradient-87" x1="489.98" y1="322.12" x2="262.93" y2="-28.44" xlink:href="#linear-gradient-3"/><linearGradient id="linear-gradient-88" x1="521.3" y1="301.83" x2="294.26" y2="-48.73" xlink:href="#linear-gradient-3"/><linearGradient id="linear-gradient-89" x1="519.4" y1="303.06" x2="292.35" y2="-47.49" xlink:href="#linear-gradient-3"/><linearGradient id="linear-gradient-90" x1="509.59" y1="309.41" x2="282.55" y2="-41.14" xlink:href="#linear-gradient-3"/><linearGradient id="linear-gradient-91" x1="425.43" y1="363.93" x2="198.38" y2="13.37" xlink:href="#linear-gradient-3"/><linearGradient id="linear-gradient-92" x1="478.27" y1="329.7" x2="251.22" y2="-20.85" xlink:href="#linear-gradient-3"/><linearGradient id="linear-gradient-93" x1="488.07" y1="323.35" x2="261.03" y2="-27.21" xlink:href="#linear-gradient-3"/><linearGradient id="linear-gradient-94" x1="507.68" y1="310.65" x2="280.64" y2="-39.91" xlink:href="#linear-gradient-3"/><linearGradient id="linear-gradient-95" x1="233.67" y1="488.12" x2="6.62" y2="137.56" xlink:href="#linear-gradient-3"/><linearGradient id="linear-gradient-96" x1="223.87" y1="494.48" x2="-3.18" y2="143.91" xlink:href="#linear-gradient-3"/><linearGradient id="linear-gradient-97" x1="235.58" y1="486.88" x2="8.53" y2="136.33" xlink:href="#linear-gradient-3"/><linearGradient id="linear-gradient-98" x1="257.09" y1="472.95" x2="30.05" y2="122.39" xlink:href="#linear-gradient-3"/><linearGradient id="linear-gradient-99" x1="264.99" y1="467.83" x2="37.95" y2="117.28" xlink:href="#linear-gradient-3"/><linearGradient id="linear-gradient-100" x1="445.04" y1="351.22" x2="217.99" y2="0.67" xlink:href="#linear-gradient-3"/><linearGradient id="linear-gradient-101" x1="454.84" y1="344.87" x2="227.8" y2="-5.68" xlink:href="#linear-gradient-3"/><linearGradient id="linear-gradient-102" x1="452.93" y1="346.11" x2="225.89" y2="-4.45" xlink:href="#linear-gradient-3"/><linearGradient id="linear-gradient-103" x1="443.13" y1="352.46" x2="216.08" y2="1.9" xlink:href="#linear-gradient-3"/><linearGradient id="linear-gradient-104" x1="476.36" y1="330.94" x2="249.31" y2="-19.62" xlink:href="#linear-gradient-3"/><linearGradient id="linear-gradient-105" x1="474.45" y1="332.17" x2="247.41" y2="-18.38" xlink:href="#linear-gradient-3"/><linearGradient id="linear-gradient-106" x1="484.26" y1="325.82" x2="257.21" y2="-24.73" xlink:href="#linear-gradient-3"/><linearGradient id="linear-gradient-107" x1="486.16" y1="324.59" x2="259.12" y2="-25.97" xlink:href="#linear-gradient-3"/><linearGradient id="linear-gradient-108" x1="255.19" y1="474.18" x2="28.14" y2="123.63" xlink:href="#linear-gradient-3"/><linearGradient id="linear-gradient-109" x1="253.28" y1="475.42" x2="26.23" y2="124.86" xlink:href="#linear-gradient-3"/><linearGradient id="linear-gradient-110" x1="284.6" y1="455.13" x2="57.56" y2="104.57" xlink:href="#linear-gradient-3"/><linearGradient id="linear-gradient-111" x1="294.41" y1="448.78" x2="67.37" y2="98.23" xlink:href="#linear-gradient-3"/><linearGradient id="linear-gradient-112" x1="315.93" y1="434.84" x2="88.88" y2="84.29" xlink:href="#linear-gradient-3"/><linearGradient id="linear-gradient-113" x1="325.73" y1="428.49" x2="98.69" y2="77.94" xlink:href="#linear-gradient-3"/><linearGradient id="linear-gradient-114" x1="198.53" y1="510.88" x2="-28.51" y2="160.32" xlink:href="#linear-gradient-3"/><linearGradient id="linear-gradient-115" x1="188.73" y1="517.23" x2="-38.32" y2="166.67" xlink:href="#linear-gradient-3"/><linearGradient id="linear-gradient-116" x1="200.44" y1="509.65" x2="-26.61" y2="159.08" xlink:href="#linear-gradient-3"/><linearGradient id="linear-gradient-117" x1="221.96" y1="495.71" x2="-5.09" y2="145.15" xlink:href="#linear-gradient-3"/><linearGradient id="linear-gradient-118" x1="220.05" y1="496.94" x2="-7" y2="146.38" xlink:href="#linear-gradient-3"/><linearGradient id="linear-gradient-119" x1="231.76" y1="489.35" x2="4.72" y2="138.8" xlink:href="#linear-gradient-3"/><linearGradient id="linear-gradient-120" x1="263.09" y1="469.07" x2="36.04" y2="118.51" xlink:href="#linear-gradient-3"/><linearGradient id="linear-gradient-121" x1="261.18" y1="470.3" x2="34.13" y2="119.75" xlink:href="#linear-gradient-3"/><linearGradient id="linear-gradient-122" x1="251.37" y1="476.65" x2="24.33" y2="126.1" xlink:href="#linear-gradient-3"/><linearGradient id="linear-gradient-123" x1="314.02" y1="436.08" x2="86.97" y2="85.52" xlink:href="#linear-gradient-3"/><linearGradient id="linear-gradient-124" x1="417.8" y1="368.87" x2="190.75" y2="18.31" xlink:href="#linear-gradient-3"/><linearGradient id="linear-gradient-125" x1="441.22" y1="353.69" x2="214.18" y2="3.14" xlink:href="#linear-gradient-3"/><linearGradient id="linear-gradient-126" x1="451.03" y1="347.35" x2="223.98" y2="-3.21" xlink:href="#linear-gradient-3"/><linearGradient id="linear-gradient-127" x1="472.54" y1="333.41" x2="245.5" y2="-17.15" xlink:href="#linear-gradient-3"/><linearGradient id="linear-gradient-128" x1="229.85" y1="490.59" x2="2.81" y2="140.03" xlink:href="#linear-gradient-3"/><linearGradient id="linear-gradient-129" x1="218.14" y1="498.18" x2="-8.9" y2="147.62" xlink:href="#linear-gradient-3"/><linearGradient id="linear-gradient-130" x1="282.7" y1="456.37" x2="55.65" y2="105.81" xlink:href="#linear-gradient-3"/><linearGradient id="linear-gradient-131" x1="292.5" y1="450.01" x2="65.46" y2="99.46" xlink:href="#linear-gradient-3"/><linearGradient id="linear-gradient-132" x1="290.59" y1="451.25" x2="63.55" y2="100.7" xlink:href="#linear-gradient-3"/><linearGradient id="linear-gradient-133" x1="280.79" y1="457.6" x2="53.74" y2="107.04" xlink:href="#linear-gradient-3"/><linearGradient id="linear-gradient-134" x1="406.08" y1="376.45" x2="179.04" y2="25.9" xlink:href="#linear-gradient-3"/><linearGradient id="linear-gradient-135" x1="449.12" y1="348.58" x2="222.08" y2="-1.97" xlink:href="#linear-gradient-3"/><linearGradient id="linear-gradient-136" x1="437.41" y1="356.17" x2="210.36" y2="5.61" xlink:href="#linear-gradient-3"/><linearGradient id="linear-gradient-137" x1="186.82" y1="518.46" x2="-40.23" y2="167.91" xlink:href="#linear-gradient-3"/><linearGradient id="linear-gradient-138" x1="196.62" y1="512.11" x2="-30.42" y2="161.56" xlink:href="#linear-gradient-3"/><linearGradient id="linear-gradient-139" x1="227.95" y1="491.83" x2="0.9" y2="141.27" xlink:href="#linear-gradient-3"/><linearGradient id="linear-gradient-140" x1="249.47" y1="477.89" x2="22.42" y2="127.33" xlink:href="#linear-gradient-3"/><linearGradient id="linear-gradient-141" x1="259.27" y1="471.54" x2="32.23" y2="120.98" xlink:href="#linear-gradient-3"/><linearGradient id="linear-gradient-142" x1="384.56" y1="390.39" x2="157.52" y2="39.83" xlink:href="#linear-gradient-3"/><linearGradient id="linear-gradient-143" x1="415.89" y1="370.1" x2="188.84" y2="19.54" xlink:href="#linear-gradient-3"/><linearGradient id="linear-gradient-144" x1="452.62" y1="325.93" x2="175.5" y2="-101.93" xlink:href="#linear-gradient-3"/><linearGradient id="linear-gradient-145" x1="490.85" y1="301.17" x2="213.73" y2="-126.7" xlink:href="#linear-gradient-3"/><linearGradient id="linear-gradient-146" x1="529.08" y1="276.41" x2="251.96" y2="-151.46" xlink:href="#linear-gradient-3"/><linearGradient id="linear-gradient-147" x1="556.27" y1="258.8" x2="279.15" y2="-169.07" xlink:href="#linear-gradient-3"/><linearGradient id="linear-gradient-148" x1="489.47" y1="302.06" x2="212.35" y2="-125.81" xlink:href="#linear-gradient-3"/><linearGradient id="linear-gradient-149" x1="527.7" y1="277.3" x2="250.59" y2="-150.57" xlink:href="#linear-gradient-3"/><linearGradient id="linear-gradient-150" x1="555.11" y1="259.55" x2="277.99" y2="-168.31" xlink:href="#linear-gradient-3"/><linearGradient id="linear-gradient-151" x1="487.14" y1="303.57" x2="210.03" y2="-124.3" xlink:href="#linear-gradient-3"/><linearGradient id="linear-gradient-152" x1="523.15" y1="280.25" x2="246.04" y2="-147.62" xlink:href="#linear-gradient-3"/><linearGradient id="linear-gradient-153" x1="222.36" y1="475.06" x2="-54.75" y2="47.19" xlink:href="#linear-gradient-3"/><linearGradient id="linear-gradient-154" x1="484.81" y1="305.08" x2="207.7" y2="-122.79" xlink:href="#linear-gradient-3"/><linearGradient id="linear-gradient-155" x1="512.22" y1="287.33" x2="235.1" y2="-140.54" xlink:href="#linear-gradient-3"/><linearGradient id="linear-gradient-156" x1="214.87" y1="479.92" x2="-62.25" y2="52.05" xlink:href="#linear-gradient-3"/><linearGradient id="linear-gradient-157" x1="253.1" y1="455.16" x2="-24.02" y2="27.29" xlink:href="#linear-gradient-3"/><linearGradient id="linear-gradient-158" x1="291.33" y1="430.39" x2="14.21" y2="2.53" xlink:href="#linear-gradient-3"/><linearGradient id="linear-gradient-159" x1="179.48" y1="502.84" x2="-97.64" y2="74.97" xlink:href="#linear-gradient-3"/><linearGradient id="linear-gradient-160" x1="212.54" y1="481.43" x2="-64.58" y2="53.56" xlink:href="#linear-gradient-3"/><linearGradient id="linear-gradient-161" x1="250.77" y1="456.66" x2="-26.35" y2="28.79" xlink:href="#linear-gradient-3"/><linearGradient id="linear-gradient-162" x1="171.98" y1="507.69" x2="-105.14" y2="79.83" xlink:href="#linear-gradient-3"/><linearGradient id="linear-gradient-163" x1="210.21" y1="482.93" x2="-66.91" y2="55.06" xlink:href="#linear-gradient-3"/><linearGradient id="linear-gradient-164" x1="248.44" y1="458.17" x2="-28.68" y2="30.3" xlink:href="#linear-gradient-3"/><linearGradient id="linear-gradient-165" x1="401.37" y1="359.13" x2="124.25" y2="-68.74" xlink:href="#linear-gradient-3"/><linearGradient id="linear-gradient-166" x1="437.38" y1="335.8" x2="160.26" y2="-92.07" xlink:href="#linear-gradient-3"/><linearGradient id="linear-gradient-167" x1="149.88" y1="522.01" x2="-127.24" y2="94.14" xlink:href="#linear-gradient-3"/><linearGradient id="linear-gradient-168" x1="174.73" y1="505.91" x2="-102.39" y2="78.04" xlink:href="#linear-gradient-3"/><linearGradient id="linear-gradient-169" x1="212.96" y1="481.15" x2="-64.15" y2="53.28" xlink:href="#linear-gradient-3"/><linearGradient id="linear-gradient-170" x1="251.2" y1="456.39" x2="-25.92" y2="28.52" xlink:href="#linear-gradient-3"/><linearGradient id="linear-gradient-171" x1="404.12" y1="357.34" x2="127" y2="-70.53" xlink:href="#linear-gradient-3"/><linearGradient id="linear-gradient-172" x1="431.53" y1="339.59" x2="154.41" y2="-88.27" xlink:href="#linear-gradient-3"/><linearGradient id="linear-gradient-173" x1="528.24" y1="276.96" x2="251.12" y2="-150.91" xlink:href="#linear-gradient-3"/><linearGradient id="linear-gradient-174" x1="553.62" y1="260.52" x2="276.5" y2="-167.35" xlink:href="#linear-gradient-3"/><linearGradient id="linear-gradient-175" x1="278.1" y1="438.96" x2="0.99" y2="11.09" xlink:href="#linear-gradient-3"/><linearGradient id="linear-gradient-176" x1="232.42" y1="468.55" x2="-44.7" y2="40.68" xlink:href="#linear-gradient-3"/><linearGradient id="linear-gradient-177" x1="275.07" y1="440.92" x2="-2.05" y2="13.06" xlink:href="#linear-gradient-3"/><linearGradient id="linear-gradient-178" x1="222.21" y1="475.16" x2="-54.91" y2="47.29" xlink:href="#linear-gradient-3"/><linearGradient id="linear-gradient-179" x1="471.25" y1="313.87" x2="194.13" y2="-114" xlink:href="#linear-gradient-3"/><linearGradient id="linear-gradient-180" x1="176.52" y1="504.75" x2="-100.6" y2="76.88" xlink:href="#linear-gradient-3"/><linearGradient id="linear-gradient-181" x1="219.17" y1="477.13" x2="-57.94" y2="49.26" xlink:href="#linear-gradient-3"/><linearGradient id="linear-gradient-182" x1="418.48" y1="348.04" x2="141.36" y2="-79.83" xlink:href="#linear-gradient-3"/><linearGradient id="linear-gradient-183" x1="460.41" y1="320.88" x2="183.29" y2="-106.98" xlink:href="#linear-gradient-3"/><linearGradient id="linear-gradient-184" x1="167.43" y1="510.64" x2="-109.69" y2="82.77" xlink:href="#linear-gradient-3"/><linearGradient id="linear-gradient-185" x1="217.26" y1="478.37" x2="-59.86" y2="50.5" xlink:href="#linear-gradient-3"/><linearGradient id="linear-gradient-186" x1="267.08" y1="446.1" x2="-10.03" y2="18.23" xlink:href="#linear-gradient-3"/><linearGradient id="linear-gradient-187" x1="316.91" y1="413.83" x2="39.79" y2="-14.04" xlink:href="#linear-gradient-3"/><linearGradient id="linear-gradient-188" x1="366.74" y1="381.56" x2="89.62" y2="-46.31" xlink:href="#linear-gradient-3"/><linearGradient id="linear-gradient-189" x1="416.47" y1="349.35" x2="139.35" y2="-78.52" xlink:href="#linear-gradient-3"/><linearGradient id="linear-gradient-190" x1="477.5" y1="309.82" x2="200.39" y2="-118.05" xlink:href="#linear-gradient-3"/><linearGradient id="linear-gradient-191" x1="553.97" y1="260.29" x2="276.85" y2="-167.58" xlink:href="#linear-gradient-3"/><linearGradient id="linear-gradient-192" x1="439.27" y1="334.58" x2="162.15" y2="-93.29" xlink:href="#linear-gradient-3"/><linearGradient id="linear-gradient-193" x1="515.74" y1="285.06" x2="238.62" y2="-142.82" xlink:href="#linear-gradient-3"/><linearGradient id="linear-gradient-194" x1="539.67" y1="269.55" x2="262.55" y2="-158.32" xlink:href="#linear-gradient-3"/><linearGradient id="linear-gradient-195" x1="243.46" y1="461.4" x2="-33.66" y2="33.53" xlink:href="#linear-gradient-3"/><linearGradient id="linear-gradient-196" x1="463.21" y1="319.07" x2="186.09" y2="-108.79" xlink:href="#linear-gradient-3"/><linearGradient id="linear-gradient-197" x1="475.18" y1="311.32" x2="198.06" y2="-116.55" xlink:href="#linear-gradient-3"/><linearGradient id="linear-gradient-198" x1="472.85" y1="312.83" x2="195.73" y2="-115.04" xlink:href="#linear-gradient-3"/><linearGradient id="linear-gradient-199" x1="460.88" y1="320.58" x2="183.76" y2="-107.29" xlink:href="#linear-gradient-3"/><linearGradient id="linear-gradient-200" x1="501.44" y1="294.31" x2="224.32" y2="-133.56" xlink:href="#linear-gradient-3"/><linearGradient id="linear-gradient-201" x1="499.11" y1="295.82" x2="221.99" y2="-132.05" xlink:href="#linear-gradient-3"/><linearGradient id="linear-gradient-202" x1="511.08" y1="288.07" x2="233.96" y2="-139.8" xlink:href="#linear-gradient-3"/><linearGradient id="linear-gradient-203" x1="513.41" y1="286.56" x2="236.29" y2="-141.31" xlink:href="#linear-gradient-3"/><linearGradient id="linear-gradient-204" x1="229.16" y1="470.66" x2="-47.96" y2="42.79" xlink:href="#linear-gradient-3"/><linearGradient id="linear-gradient-205" x1="267.4" y1="445.9" x2="-9.72" y2="18.03" xlink:href="#linear-gradient-3"/><linearGradient id="linear-gradient-206" x1="279.36" y1="438.14" x2="2.24" y2="10.28" xlink:href="#linear-gradient-3"/><linearGradient id="linear-gradient-207" x1="305.62" y1="421.13" x2="28.51" y2="-6.73" xlink:href="#linear-gradient-3"/><linearGradient id="linear-gradient-208" x1="317.59" y1="413.39" x2="40.47" y2="-14.49" xlink:href="#linear-gradient-3"/><linearGradient id="linear-gradient-209" x1="241.13" y1="462.9" x2="-35.99" y2="35.04" xlink:href="#linear-gradient-3"/><linearGradient id="linear-gradient-210" x1="238.8" y1="464.41" x2="-38.32" y2="36.55" xlink:href="#linear-gradient-3"/><linearGradient id="linear-gradient-211" x1="226.83" y1="472.17" x2="-50.28" y2="44.3" xlink:href="#linear-gradient-3"/><linearGradient id="linear-gradient-212" x1="303.3" y1="422.64" x2="26.18" y2="-5.23" xlink:href="#linear-gradient-3"/><linearGradient id="linear-gradient-213" x1="429.96" y1="340.61" x2="152.84" y2="-87.26" xlink:href="#linear-gradient-3"/><linearGradient id="linear-gradient-214" x1="458.55" y1="322.09" x2="181.43" y2="-105.78" xlink:href="#linear-gradient-3"/><linearGradient id="linear-gradient-215" x1="470.52" y1="314.34" x2="193.4" y2="-113.53" xlink:href="#linear-gradient-3"/><linearGradient id="linear-gradient-216" x1="496.78" y1="297.33" x2="219.67" y2="-130.54" xlink:href="#linear-gradient-3"/><linearGradient id="linear-gradient-217" x1="200.57" y1="489.17" x2="-76.55" y2="61.31" xlink:href="#linear-gradient-3"/><linearGradient id="linear-gradient-218" x1="186.27" y1="498.44" x2="-90.84" y2="70.57" xlink:href="#linear-gradient-3"/><linearGradient id="linear-gradient-219" x1="265.07" y1="447.41" x2="-12.05" y2="19.54" xlink:href="#linear-gradient-3"/><linearGradient id="linear-gradient-220" x1="277.03" y1="439.65" x2="-0.08" y2="11.79" xlink:href="#linear-gradient-3"/><linearGradient id="linear-gradient-221" x1="274.71" y1="441.16" x2="-2.41" y2="13.29" xlink:href="#linear-gradient-3"/><linearGradient id="linear-gradient-222" x1="262.74" y1="448.91" x2="-14.38" y2="21.04" xlink:href="#linear-gradient-3"/><linearGradient id="linear-gradient-223" x1="415.66" y1="349.87" x2="138.55" y2="-78" xlink:href="#linear-gradient-3"/><linearGradient id="linear-gradient-224" x1="468.19" y1="315.85" x2="191.07" y2="-112.02" xlink:href="#linear-gradient-3"/><linearGradient id="linear-gradient-225" x1="453.9" y1="325.11" x2="176.77" y2="-102.77" xlink:href="#linear-gradient-3"/><linearGradient id="linear-gradient-226" x1="183.95" y1="499.94" x2="-93.17" y2="72.08" xlink:href="#linear-gradient-3"/><linearGradient id="linear-gradient-227" x1="198.24" y1="490.69" x2="-78.88" y2="62.81" xlink:href="#linear-gradient-3"/><linearGradient id="linear-gradient-228" x1="224.5" y1="473.67" x2="-52.61" y2="45.81" xlink:href="#linear-gradient-3"/><linearGradient id="linear-gradient-229" x1="236.47" y1="465.92" x2="-40.64" y2="38.05" xlink:href="#linear-gradient-3"/><linearGradient id="linear-gradient-230" x1="234.15" y1="467.43" x2="-42.97" y2="39.56" xlink:href="#linear-gradient-3"/><linearGradient id="linear-gradient-231" x1="260.41" y1="450.42" x2="-16.71" y2="22.55" xlink:href="#linear-gradient-3"/><linearGradient id="linear-gradient-232" x1="389.4" y1="366.88" x2="112.28" y2="-60.99" xlink:href="#linear-gradient-3"/><linearGradient id="linear-gradient-233" x1="427.63" y1="342.12" x2="150.51" y2="-85.75" xlink:href="#linear-gradient-3"/><linearGradient id="linear-gradient-234" x1="195.91" y1="492.19" x2="-81.2" y2="64.32" xlink:href="#linear-gradient-3"/><linearGradient id="linear-gradient-235" x1="222.18" y1="475.18" x2="-54.94" y2="47.31" xlink:href="#linear-gradient-3"/><linearGradient id="linear-gradient-236" x1="375.1" y1="376.14" x2="97.99" y2="-51.73" xlink:href="#linear-gradient-3"/><linearGradient id="linear-gradient-237" x1="413.34" y1="351.38" x2="136.22" y2="-76.5" xlink:href="#linear-gradient-3"/><linearGradient id="linear-gradient-238" x1="425.3" y1="343.62" x2="148.19" y2="-84.24" xlink:href="#linear-gradient-3"/></defs><title>background</title><g class="cls-2"><g id="Layer_1" data-name="Layer 1"><rect class="cls-1" width="396" height="288"/><g class="cls-3"><g class="cls-4"><path class="cls-5" d="M230,58.11l-.05,0L207.66,45.21V19.43l.05,0L230,6.54l0,0,22.28,12.86V45.21l0,0Zm-22.13-13L230,57.88,252.13,45.1V19.54L230,6.76,207.86,19.54Z"/><path class="cls-6" d="M274.45,58.11l0,0L252.13,45.21V19.43l0,0L274.45,6.54l.05,0,22.28,12.86V45.21l0,0Zm-22.13-13,22.13,12.78L296.59,45.1V19.54L274.45,6.76,252.32,19.54Z"/><path class="cls-7" d="M318.92,58.11l-.05,0L296.59,45.21V19.43l.05,0L318.92,6.54l.05,0,22.27,12.86V45.21l0,0Zm-22.14-13,22.14,12.78L341.05,45.1V19.54L318.92,6.76,296.78,19.54Z"/><path class="cls-8" d="M363.38,58.11l-.05,0L341.05,45.21V19.43l.05,0L363.38,6.54l.05,0,22.28,12.86V45.21l0,0Zm-22.14-13,22.14,12.78L385.51,45.1V19.54L363.38,6.76,341.24,19.54Z"/><polygon class="cls-9" points="413.3 54.73 407.84 57.88 385.71 45.1 385.71 19.54 407.84 6.76 413.3 9.92 413.3 9.69 407.89 6.57 407.84 6.54 385.56 19.41 385.51 19.43 385.51 45.22 407.79 58.08 407.84 58.11 413.3 54.95 413.3 54.73"/><path class="cls-10" d="M29.91,96.61l-.05,0L7.58,83.72V57.94l0,0L29.91,45.05l.05,0L52.24,57.94V83.72l-.05,0Zm-22.14-13L29.91,96.39,52,83.61V58.05L29.91,45.27,7.77,58.05Z"/><path class="cls-11" d="M252.22,96.61l-.05,0L229.89,83.72V57.94l.05,0,22.28-12.86.05,0,22.28,12.86V83.72l-.05,0Zm-22.13-13,22.13,12.78,22.14-12.78V58.05L252.22,45.27,230.09,58.05Z"/><path class="cls-12" d="M296.69,96.61l-.05,0L274.36,83.72V57.94l.05,0,22.28-12.86,0,0L319,57.94V83.72l0,0Zm-22.14-13,22.14,12.78,22.13-12.78V58.05L296.69,45.27,274.55,58.05Z"/><path class="cls-13" d="M341.15,96.61l0,0L318.82,83.72V57.94l.05,0,22.28-12.86.05,0,22.28,12.86V83.72l-.05,0ZM319,83.61l22.14,12.78,22.13-12.78V58.05L341.15,45.27,319,58.05Z"/><path class="cls-14" d="M385.61,96.61l-.05,0L363.28,83.72V57.94l.05,0,22.28-12.86.05,0,22.28,12.86V83.72l-.05,0Zm-22.13-13,22.13,12.78,22.14-12.78V58.05L385.61,45.27,363.48,58.05Z"/><path class="cls-15" d="M318.92,135.12l-.05,0-22.28-12.86V96.44l.05,0,22.28-12.87.05,0,22.27,12.86v25.79l0,0Zm-22.14-13,22.14,12.77,22.13-12.77V96.56L318.92,83.78,296.78,96.56Z"/><path class="cls-16" d="M363.38,135.12l-.05,0-22.28-12.86V96.44l.05,0,22.28-12.87.05,0,22.28,12.86v25.79l0,0Zm-22.14-13,22.14,12.77,22.13-12.77V96.56L363.38,83.78,341.24,96.56Z"/><polygon class="cls-17" points="413.3 131.74 407.84 134.89 385.71 122.11 385.71 96.56 407.84 83.78 413.3 86.93 413.3 86.7 407.89 83.58 407.84 83.55 385.56 96.42 385.51 96.44 385.51 122.23 407.79 135.09 407.84 135.12 413.3 131.97 413.3 131.74"/><path class="cls-18" d="M341.15,173.62l0,0-22.28-12.87V135l.05,0,22.28-12.86.05,0L363.48,135v25.78l-.05,0Zm-22.14-13,22.14,12.78,22.13-12.78V135.06l-22.13-12.78L319,135.06Z"/><path class="cls-19" d="M385.61,173.62l-.05,0-22.28-12.87V135l.05,0,22.28-12.86.05,0L407.94,135v25.78l-.05,0Zm-22.13-13,22.13,12.78,22.14-12.78V135.06l-22.14-12.78-22.13,12.78Z"/><path class="cls-20" d="M52.14,212.13l0,0L29.81,199.24V173.46l.05,0,22.28-12.86,0,0,22.28,12.87v25.78l0,0ZM30,199.13l22.13,12.78,22.13-12.78V173.57L52.14,160.79,30,173.57Z"/><path class="cls-21" d="M363.38,212.13l-.05,0-22.28-12.86V173.46l.05,0,22.28-12.86.05,0,22.28,12.87v25.78l0,0Zm-22.14-13,22.14,12.78,22.13-12.78V173.57l-22.13-12.78-22.14,12.78Z"/><polygon class="cls-22" points="413.3 208.75 407.84 211.91 385.71 199.13 385.71 173.57 407.84 160.79 413.3 163.94 413.3 163.72 407.89 160.59 407.84 160.56 385.56 173.43 385.51 173.46 385.51 199.24 407.79 212.1 407.84 212.13 413.3 208.98 413.3 208.75"/><path class="cls-23" d="M29.91,250.64l-.05,0L7.58,237.74V212l0,0,22.28-12.86.05,0L52.24,212v25.78l-.05,0Zm-22.14-13,22.14,12.78L52,237.63V212.07L29.91,199.29,7.77,212.07Z"/><path class="cls-24" d="M74.37,250.64l-.05,0L52,237.74V212l.05,0,22.28-12.86,0,0L96.7,212v25.78l0,0Zm-22.13-13,22.13,12.78,22.14-12.78V212.07L74.37,199.29,52.24,212.07Z"/><path class="cls-25" d="M118.83,250.64l0,0L96.51,237.74V212l0,0,22.28-12.86,0,0L141.16,212v25.78l0,0Zm-22.13-13,22.13,12.78L141,237.63V212.07l-22.14-12.78L96.7,212.07Z"/><path class="cls-26" d="M163.3,250.64l-.05,0L141,237.74V212l.05,0,22.28-12.86,0,0L185.62,212v25.78l0,0Zm-22.14-13,22.14,12.78,22.13-12.78V212.07L163.3,199.29l-22.14,12.78Z"/><path class="cls-27" d="M52.14,289.14l0,0L29.81,276.25V250.47l.05,0,22.28-12.86,0,0,22.28,12.87v25.78l0,0ZM30,276.14l22.13,12.78,22.13-12.78V250.58L52.14,237.8,30,250.58Z"/><path class="cls-28" d="M96.6,289.14l0,0L74.27,276.25V250.47l0,0L96.6,237.58l.05,0,22.28,12.87v25.78l-.05,0Zm-22.13-13L96.6,288.92l22.14-12.78V250.58L96.6,237.8,74.47,250.58Z"/><path class="cls-29" d="M141.07,289.14l0,0-22.28-12.86V250.47l.05,0,22.28-12.86,0,0,22.28,12.87v25.78l0,0Zm-22.14-13,22.14,12.78,22.13-12.78V250.58L141.07,237.8l-22.14,12.78Z"/><polygon class="cls-30" points="7.77 303.53 7.77 289.09 29.91 276.31 52.04 289.09 52.04 303.53 52.24 303.53 52.24 288.97 29.96 276.11 29.91 276.08 7.63 288.95 7.58 288.97 7.58 303.53 7.77 303.53"/><polygon class="cls-31" points="52.24 303.53 52.24 289.09 74.37 276.31 96.51 289.09 96.51 303.53 96.7 303.53 96.7 288.97 74.42 276.11 74.37 276.08 52.09 288.95 52.04 288.97 52.04 303.53 52.24 303.53"/><polygon class="cls-32" points="96.7 303.53 96.7 289.09 118.83 276.31 140.97 289.09 140.97 303.53 141.16 303.53 141.16 288.97 118.88 276.11 118.83 276.08 96.55 288.95 96.51 288.97 96.51 303.53 96.7 303.53"/><polygon class="cls-33" points="141.16 303.53 141.16 289.09 163.3 276.31 185.43 289.09 185.43 303.53 185.63 303.53 185.63 288.97 163.34 276.11 163.3 276.08 141.02 288.95 140.97 288.97 140.97 303.53 141.16 303.53"/><polygon class="cls-34" points="319.01 303.53 319.01 289.09 341.15 276.31 363.28 289.09 363.28 303.53 363.48 303.53 363.48 288.97 341.2 276.11 341.15 276.08 318.87 288.95 318.82 288.97 318.82 303.53 319.01 303.53"/><polygon class="cls-35" points="363.48 303.53 363.48 289.09 385.61 276.31 407.75 289.09 407.75 303.53 407.94 303.53 407.94 288.97 385.66 276.11 385.61 276.08 363.33 288.95 363.28 288.97 363.28 303.53 363.48 303.53"/><polygon class="cls-36" points="312.11 -34.72 312.11 -12.85 283.64 3.59 255.17 -12.85 255.17 -34.72 254.16 -34.72 254.16 -12.27 283.64 4.75 313.12 -12.27 313.12 -34.72 312.11 -34.72"/><polygon class="cls-37" points="370.06 -34.72 370.06 -12.85 341.59 3.59 313.12 -12.85 313.12 -34.72 312.11 -34.72 312.11 -12.27 341.59 4.75 371.06 -12.27 371.06 -34.72 370.06 -34.72"/><polygon class="cls-38" points="371.06 -12.85 371.06 -34.72 370.06 -34.72 370.06 -12.27 399.53 4.75 413.3 -3.2 413.3 -4.36 399.53 3.59 371.06 -12.85"/><path class="cls-39" d="M312.61,54.93l-29.47-17v-34l29.47-17,29.48,17v34Zm-28.47-17.6,28.47,16.44,28.47-16.44V4.46L312.61-12,284.14,4.46Z"/><path class="cls-40" d="M370.56,54.93l-29.48-17v-34l29.48-17L400,3.88v34Zm-28.47-17.6,28.47,16.44L399,37.33V4.46L370.56-12,342.09,4.46Z"/><path class="cls-41" d="M341.59,105.12l-29.48-17v-34l29.48-17,29.47,17v34Zm-28.47-17.6L341.59,104l28.47-16.44V54.64L341.59,38.21,313.12,54.64Z"/><polygon class="cls-42" points="413.3 96.01 399.53 103.95 371.06 87.52 371.06 54.64 399.53 38.2 413.3 46.15 413.3 44.99 399.53 37.04 370.06 54.06 370.06 88.1 399.53 105.12 413.3 97.17 413.3 96.01"/><path class="cls-43" d="M22.88,155.3l-29.48-17v-34l29.48-17,29.47,17v34ZM-5.59,137.7l28.47,16.44L51.35,137.7V104.83L22.88,88.39-5.59,104.83Z"/><path class="cls-44" d="M80.82,155.3l-29.47-17v-34l29.47-17,29.48,17v34ZM52.35,137.7l28.47,16.44L109.3,137.7V104.83L80.82,88.39,52.35,104.83Z"/><polygon class="cls-45" points="-6.1 137.41 -20.15 145.52 -20.15 146.69 -6.1 138.57 22.37 155.01 22.37 187.88 -6.1 204.32 -20.15 196.21 -20.15 197.37 -6.1 205.48 23.38 188.47 23.38 154.43 -6.1 137.41"/><path class="cls-46" d="M51.85,205.48l-29.48-17v-34l29.48-17,29.48,17v34ZM23.38,187.89l28.47,16.43,28.47-16.43V155L51.85,138.57,23.38,155Z"/><path class="cls-47" d="M109.8,205.48l-29.48-17v-34l29.48-17,29.48,17v34ZM81.33,187.89l28.47,16.43,28.47-16.43V155L109.8,138.57,81.33,155Z"/><path class="cls-48" d="M22.88,255.67l-29.48-17v-34l29.48-17,29.47,17v34Zm-28.47-17.6,28.47,16.44,28.47-16.44V205.19L22.88,188.76-5.59,205.19Z"/><path class="cls-49" d="M80.82,255.67l-29.47-17v-34l29.47-17,29.48,17v34Zm-28.47-17.6,28.47,16.44,28.48-16.44V205.19L80.82,188.76,52.35,205.19Z"/><path class="cls-50" d="M370.56,255.67l-29.48-17v-34l29.48-17,29.48,17v34Zm-28.47-17.6,28.47,16.44L399,238.07V205.19l-28.47-16.43-28.47,16.43Z"/><polygon class="cls-51" points="-6.1 237.78 -20.15 245.89 -20.15 247.05 -6.1 238.94 22.37 255.38 22.37 288.25 -4.08 303.53 -2.07 303.53 23.38 288.83 23.38 254.8 -6.1 237.78"/><polygon class="cls-52" points="49.84 303.53 23.38 288.25 23.38 255.38 51.85 238.94 80.32 255.38 80.32 288.25 53.86 303.53 55.88 303.53 81.33 288.83 81.33 254.8 51.85 237.78 22.37 254.8 22.37 288.83 47.83 303.53 49.84 303.53"/><polygon class="cls-53" points="107.79 303.53 81.33 288.25 81.33 255.38 109.8 238.94 138.27 255.38 138.27 288.25 111.81 303.53 113.82 303.53 139.28 288.83 139.28 254.8 109.8 237.78 80.32 254.8 80.32 288.83 105.78 303.53 107.79 303.53"/><polygon class="cls-54" points="339.58 303.53 313.12 288.25 313.12 255.38 341.59 238.94 370.06 255.38 370.06 288.25 343.6 303.53 345.61 303.53 371.06 288.83 371.06 254.8 341.59 237.78 312.11 254.8 312.11 288.83 337.56 303.53 339.58 303.53"/><polygon class="cls-55" points="399.53 238.94 413.3 246.89 413.3 245.73 399.53 237.78 370.06 254.8 370.06 288.83 395.51 303.53 397.52 303.53 371.06 288.25 371.06 255.38 399.53 238.94"/><polygon class="cls-56" points="-2.07 303.53 22.88 289.12 47.83 303.53 49.84 303.53 22.88 287.96 -4.08 303.53 -2.07 303.53"/><polygon class="cls-57" points="55.88 303.53 80.83 289.12 105.77 303.53 107.79 303.53 80.83 287.96 53.86 303.53 55.88 303.53"/><polygon class="cls-58" points="113.82 303.53 138.77 289.12 163.72 303.53 165.73 303.53 138.77 287.96 111.81 303.53 113.82 303.53"/><polygon class="cls-59" points="171.77 303.53 196.72 289.12 221.67 303.53 223.68 303.53 196.72 287.96 169.76 303.53 171.77 303.53"/><polygon class="cls-60" points="229.72 303.53 254.67 289.12 279.62 303.53 281.63 303.53 254.67 287.96 227.71 303.53 229.72 303.53"/><polygon class="cls-61" points="287.67 303.53 312.61 289.12 337.56 303.53 339.58 303.53 312.61 287.96 285.65 303.53 287.67 303.53"/><polygon class="cls-62" points="345.61 303.53 370.56 289.12 395.51 303.53 397.52 303.53 370.56 287.96 343.6 303.53 345.61 303.53"/><path class="cls-63" d="M52.14,59.59a1.6,1.6,0,1,0-1.6-1.6A1.6,1.6,0,0,0,52.14,59.59Z"/><path class="cls-64" d="M185.53,6.92a.27.27,0,1,0-.27-.27A.27.27,0,0,0,185.53,6.92Z"/><path class="cls-65" d="M207.76,16.42a3.07,3.07,0,1,0,3.07,3.07A3.08,3.08,0,0,0,207.76,16.42Z"/><path class="cls-66" d="M207.76,47.08a1.92,1.92,0,1,0-1.92-1.92A1.92,1.92,0,0,0,207.76,47.08Z"/><path class="cls-67" d="M230,59.72A1.73,1.73,0,1,0,228.26,58,1.73,1.73,0,0,0,230,59.72Z"/><circle class="cls-68" cx="229.99" cy="6.65" r="0.89"/><path class="cls-69" d="M252.22,21.25a1.76,1.76,0,1,0-1.76-1.76A1.76,1.76,0,0,0,252.22,21.25Z"/><path class="cls-70" d="M252.22,42.07a3.09,3.09,0,1,0,3.09,3.09A3.09,3.09,0,0,0,252.22,42.07Z"/><path class="cls-71" d="M274.45,8a1.3,1.3,0,1,0-1.3-1.3A1.31,1.31,0,0,0,274.45,8Z"/><path class="cls-72" d="M296.69,21.89a2.4,2.4,0,1,0-2.4-2.4A2.4,2.4,0,0,0,296.69,21.89Z"/><circle class="cls-73" cx="296.69" cy="45.16" r="2.86"/><path class="cls-74" d="M318.92,8.15a1.5,1.5,0,1,0-1.5-1.5A1.5,1.5,0,0,0,318.92,8.15Z"/><path class="cls-75" d="M341.15,21.21a1.72,1.72,0,1,0-1.72-1.72A1.72,1.72,0,0,0,341.15,21.21Z"/><circle class="cls-76" cx="341.15" cy="45.16" r="1.23"/><path class="cls-77" d="M363.38,7.81a1.16,1.16,0,1,0-1.16-1.16A1.16,1.16,0,0,0,363.38,7.81Z"/><path class="cls-78" d="M385.61,21.31a1.82,1.82,0,1,0-1.82-1.82A1.82,1.82,0,0,0,385.61,21.31Z"/><circle class="cls-79" cx="385.61" cy="45.16" r="2.07"/><path class="cls-80" d="M29.91,94.46a2,2,0,1,0,2,2A2,2,0,0,0,29.91,94.46Z"/><circle class="cls-81" cx="7.68" cy="83.66" r="1.29"/><path class="cls-82" d="M7.68,59a1,1,0,1,0-1-1A1,1,0,0,0,7.68,59Z"/><circle class="cls-83" cx="29.91" cy="45.16" r="2.99"/><path class="cls-84" d="M52.14,86.18a2.52,2.52,0,1,0-2.51-2.52A2.51,2.51,0,0,0,52.14,86.18Z"/><path class="cls-85" d="M230,86a2.32,2.32,0,1,0-2.32-2.32A2.32,2.32,0,0,0,230,86Z"/><path class="cls-86" d="M274.45,56.81A1.19,1.19,0,1,0,275.64,58,1.18,1.18,0,0,0,274.45,56.81Z"/><path class="cls-87" d="M274.45,85.86a2.2,2.2,0,1,0-2.2-2.2A2.19,2.19,0,0,0,274.45,85.86Z"/><circle class="cls-88" cx="296.69" cy="96.5" r="1.39"/><path class="cls-89" d="M318.92,54.75A3.25,3.25,0,1,0,322.17,58,3.24,3.24,0,0,0,318.92,54.75Z"/><path class="cls-90" d="M363.38,60.4A2.41,2.41,0,1,0,361,58,2.4,2.4,0,0,0,363.38,60.4Z"/><path class="cls-91" d="M385.61,98.9a2.4,2.4,0,1,0-2.4-2.4A2.39,2.39,0,0,0,385.61,98.9Z"/><path class="cls-92" d="M363.38,86.5a2.84,2.84,0,1,0-2.83-2.84A2.84,2.84,0,0,0,363.38,86.5Z"/><path class="cls-93" d="M254.07,96.5a1.85,1.85,0,1,0-1.85,1.85A1.85,1.85,0,0,0,254.07,96.5Z"/><circle class="cls-94" cx="318.92" cy="83.66" r="1.49"/><path class="cls-95" d="M341.15,98.1a1.6,1.6,0,1,0-1.6-1.6A1.6,1.6,0,0,0,341.15,98.1Z"/><path class="cls-96" d="M385.61,120.11a2.06,2.06,0,1,0,2.06,2.06A2.06,2.06,0,0,0,385.61,120.11Z"/><path class="cls-97" d="M29.91,171.17a2.34,2.34,0,1,0,2.34,2.34A2.34,2.34,0,0,0,29.91,171.17Z"/><circle class="cls-98" cx="7.68" cy="160.68" r="0.21"/><circle class="cls-99" cx="7.68" cy="135.01" r="1.87"/><path class="cls-100" d="M29.91,120.56a1.61,1.61,0,1,0,1.61,1.61A1.61,1.61,0,0,0,29.91,120.56Z"/><path class="cls-101" d="M72.92,173.51a1.46,1.46,0,1,0,1.45-1.45A1.45,1.45,0,0,0,72.92,173.51Z"/><path class="cls-102" d="M296.69,119.79a2.38,2.38,0,1,0,2.37,2.38A2.38,2.38,0,0,0,296.69,119.79Z"/><path class="cls-103" d="M316.45,135a2.47,2.47,0,1,0,2.47-2.47A2.46,2.46,0,0,0,316.45,135Z"/><circle class="cls-104" cx="341.15" cy="173.51" r="1.49"/><circle class="cls-105" cx="318.92" cy="160.68" r="1.94"/><circle class="cls-106" cx="341.15" cy="122.17" r="2.07"/><circle class="cls-107" cx="363.38" cy="160.68" r="2.94"/><path class="cls-108" d="M385.61,175.17a1.66,1.66,0,1,0-1.66-1.66A1.66,1.66,0,0,0,385.61,175.17Z"/><path class="cls-109" d="M363.38,137.92a2.92,2.92,0,1,0-2.91-2.91A2.91,2.91,0,0,0,363.38,137.92Z"/><path class="cls-110" d="M52.14,163.51a2.84,2.84,0,1,0-2.84-2.83A2.83,2.83,0,0,0,52.14,163.51Z"/><path class="cls-111" d="M74.37,201.59A2.41,2.41,0,1,0,72,199.18,2.41,2.41,0,0,0,74.37,201.59Z"/><path class="cls-112" d="M120,199.18a1.15,1.15,0,1,0-1.15,1.15A1.14,1.14,0,0,0,120,199.18Z"/><path class="cls-113" d="M141.07,214.23a2.22,2.22,0,1,0-2.22-2.21A2.21,2.21,0,0,0,141.07,214.23Z"/><path class="cls-114" d="M165.43,199.18a2.14,2.14,0,1,0-2.13,2.14A2.13,2.13,0,0,0,165.43,199.18Z"/><path class="cls-115" d="M185.53,214.52A2.5,2.5,0,1,0,183,212,2.5,2.5,0,0,0,185.53,214.52Z"/><circle class="cls-116" cx="29.91" cy="250.52" r="1.44"/><circle class="cls-117" cx="7.68" cy="237.69" r="1.15"/><path class="cls-118" d="M7.13,212a.55.55,0,0,0,.55.54.54.54,0,0,0,.54-.54.55.55,0,0,0-.54-.55A.55.55,0,0,0,7.13,212Z"/><circle class="cls-119" cx="29.91" cy="199.18" r="2.26"/><path class="cls-120" d="M50.28,237.69a1.86,1.86,0,1,0,1.86-1.86A1.86,1.86,0,0,0,50.28,237.69Z"/><path class="cls-121" d="M53.42,212a1.28,1.28,0,1,0-1.28,1.28A1.28,1.28,0,0,0,53.42,212Z"/><path class="cls-122" d="M96.6,211A1,1,0,1,0,97.65,212,1,1,0,0,0,96.6,211Z"/><path class="cls-123" d="M117.07,250.52a1.76,1.76,0,1,0,1.76-1.76A1.76,1.76,0,0,0,117.07,250.52Z"/><path class="cls-124" d="M96.6,235.15a2.54,2.54,0,1,0,2.54,2.54A2.54,2.54,0,0,0,96.6,235.15Z"/><path class="cls-125" d="M185.53,240.43a2.74,2.74,0,1,0-2.74-2.74A2.74,2.74,0,0,0,185.53,240.43Z"/><path class="cls-126" d="M341.15,249.15a1.38,1.38,0,1,0,1.37,1.37A1.37,1.37,0,0,0,341.15,249.15Z"/><path class="cls-127" d="M341.15,200.78a1.6,1.6,0,1,0-1.6-1.6A1.6,1.6,0,0,0,341.15,200.78Z"/><path class="cls-128" d="M363.38,208.89a3.13,3.13,0,1,0,3.13,3.13A3.13,3.13,0,0,0,363.38,208.89Z"/><path class="cls-129" d="M385.61,200.88a1.7,1.7,0,1,0-1.7-1.7A1.7,1.7,0,0,0,385.61,200.88Z"/><path class="cls-130" d="M72.69,250.52a1.69,1.69,0,1,0,1.68-1.68A1.69,1.69,0,0,0,72.69,250.52Z"/><path class="cls-131" d="M74.37,279a2.76,2.76,0,1,0-2.76-2.76A2.76,2.76,0,0,0,74.37,279Z"/><circle class="cls-132" cx="141.07" cy="237.69" r="2.88"/><circle class="cls-133" cx="163.3" cy="250.52" r="1.06"/><path class="cls-134" d="M185.53,291.15A2.13,2.13,0,1,0,183.4,289,2.12,2.12,0,0,0,185.53,291.15Z"/><circle class="cls-135" cx="163.3" cy="276.19" r="3.25"/><path class="cls-136" d="M343,276.19a1.85,1.85,0,1,0-1.84,1.85A1.84,1.84,0,0,0,343,276.19Z"/><path class="cls-137" d="M385.61,252.93a2.41,2.41,0,1,0-2.4-2.41A2.4,2.4,0,0,0,385.61,252.93Z"/><path class="cls-138" d="M385.61,273.79a2.41,2.41,0,1,0,2.4,2.4A2.41,2.41,0,0,0,385.61,273.79Z"/><path class="cls-139" d="M29.91,274.81a1.39,1.39,0,1,0,1.38,1.38A1.38,1.38,0,0,0,29.91,274.81Z"/><path class="cls-140" d="M52.14,285.49A3.54,3.54,0,1,0,55.68,289,3.55,3.55,0,0,0,52.14,285.49Z"/><path class="cls-141" d="M96.6,286.89A2.14,2.14,0,1,0,98.74,289,2.13,2.13,0,0,0,96.6,286.89Z"/><path class="cls-142" d="M118.83,278.63a2.44,2.44,0,1,0-2.43-2.44A2.44,2.44,0,0,0,118.83,278.63Z"/><path class="cls-143" d="M143.85,289a2.79,2.79,0,1,0-2.78,2.78A2.78,2.78,0,0,0,143.85,289Z"/><path class="cls-144" d="M318.92,290.94A1.91,1.91,0,1,0,317,289,1.92,1.92,0,0,0,318.92,290.94Z"/><path class="cls-145" d="M363.38,291.14a2.11,2.11,0,1,0-2.11-2.11A2.1,2.1,0,0,0,363.38,291.14Z"/></g><g class="cls-146"><polygon class="cls-147" points="254.89 -34.72 254.89 -7.56 227.87 8.04 200.85 -7.56 200.85 -34.72 200.62 -34.72 200.62 -7.42 227.81 8.28 227.87 8.31 255.06 -7.39 255.12 -7.42 255.12 -34.72 254.89 -34.72"/><polygon class="cls-148" points="309.16 -34.72 309.16 -7.56 282.14 8.04 255.12 -7.56 255.12 -34.72 254.89 -34.72 254.89 -7.42 282.08 8.28 282.14 8.31 309.33 -7.39 309.39 -7.42 309.39 -34.72 309.16 -34.72"/><polygon class="cls-149" points="363.43 -34.72 363.43 -7.56 336.41 8.04 309.39 -7.56 309.39 -34.72 309.16 -34.72 309.16 -7.42 336.35 8.28 336.41 8.31 363.6 -7.39 363.66 -7.42 363.66 -34.72 363.43 -34.72"/><polygon class="cls-150" points="363.66 -7.56 363.66 -34.72 363.43 -34.72 363.43 -7.42 390.62 8.28 390.68 8.31 407.85 -1.61 407.85 -1.88 390.68 8.04 363.66 -7.56"/><path class="cls-151" d="M309.27,55.31l0,0L282,39.57V8.11l.06,0,27.19-15.7.06,0,27.2,15.7V39.57l-.06,0Zm-27-15.87,27,15.6,27-15.6V8.24l-27-15.6-27,15.6Z"/><path class="cls-152" d="M363.54,55.31l-.06,0-27.19-15.7V8.11l.06,0,27.19-15.7.06,0,27.19,15.7V39.57l-.05,0Zm-27-15.87,27,15.6,27-15.6V8.24l-27-15.6-27,15.6Z"/><polygon class="cls-153" points="407.85 49.29 390.79 39.44 390.79 8.24 407.85 -1.61 407.85 -1.88 390.62 8.07 390.56 8.11 390.56 39.57 407.85 49.56 407.85 49.29"/><path class="cls-154" d="M336.41,102.31l-.06,0-27.19-15.7V55.1l.06,0,27.19-15.7.06,0,27.19,15.7V86.57l-.06,0Zm-27-15.87,27,15.59,27-15.59V55.24l-27-15.6-27,15.6Z"/><polygon class="cls-155" points="407.85 92.12 390.68 102.03 363.66 86.44 363.66 55.24 390.68 39.64 407.85 49.56 407.85 49.29 390.74 39.4 390.68 39.37 363.48 55.07 363.43 55.1 363.43 86.57 390.62 102.27 390.68 102.31 407.85 92.39 407.85 92.12"/><polygon class="cls-156" points="-16.28 86.4 -16.34 86.37 -20.15 88.57 -20.15 88.84 -16.34 86.64 10.68 102.24 10.68 133.43 -16.34 149.03 -20.15 146.83 -20.15 147.1 -16.4 149.27 -16.34 149.3 10.85 133.6 10.91 133.57 10.91 102.1 -16.28 86.4"/><path class="cls-157" d="M363.54,149.3l-.06,0-27.19-15.7V102.1l.06,0,27.19-15.7.06,0,27.19,15.7v31.47l-.05,0Zm-27-15.87,27,15.6,27-15.6V102.24l-27-15.6-27,15.6Z"/><polygon class="cls-158" points="407.85 143.28 390.79 133.43 390.79 102.24 407.85 92.39 407.85 92.12 390.62 102.07 390.56 102.1 390.56 133.57 407.85 143.56 407.85 143.28"/><path class="cls-159" d="M10.8,196.3l-.06,0-27.2-15.7V149.1l.06,0,27.2-15.7,0,0,27.2,15.7v31.47l-.06,0Zm-27-15.87,27,15.6,27-15.6V149.24l-27-15.6-27,15.6Z"/><path class="cls-160" d="M65.06,196.3l0,0-27.2-15.7V149.1l.06,0,27.19-15.7.06,0,27.2,15.7v31.47l-.06,0Zm-27-15.87,27,15.6,27-15.6V149.24l-27-15.6-27,15.6Z"/><path class="cls-161" d="M119.33,196.3l-.06,0-27.19-15.7V149.1l.06,0,27.19-15.7.06,0,27.2,15.7v31.47l-.06,0Zm-27-15.87,27,15.6,27-15.6V149.24l-27-15.6-27,15.6Z"/><polygon class="cls-162" points="-16.28 180.4 -16.34 180.36 -20.15 182.56 -20.15 182.83 -16.34 180.64 10.68 196.23 10.68 227.43 -16.34 243.03 -20.15 240.83 -20.15 241.1 -16.4 243.27 -16.34 243.3 10.85 227.6 10.91 227.57 10.91 196.1 -16.28 180.4"/><path class="cls-163" d="M37.93,243.3l-.06,0-27.19-15.7V196.1l.06,0,27.19-15.7.06,0,27.19,15.7v31.47l-.06,0Zm-27-15.87,27,15.6,27-15.6v-31.2l-27-15.59-27,15.59Z"/><path class="cls-164" d="M92.2,243.3l-.06,0L65,227.57V196.1l.06,0,27.19-15.7.06,0,27.19,15.7v31.47l-.06,0Zm-27-15.87,27,15.6,27-15.6v-31.2l-27-15.59-27,15.59Z"/><path class="cls-165" d="M10.8,290.3l-.06,0-27.2-15.7V243.1l.06,0,27.2-15.7,0,0,27.2,15.7v31.46l-.06,0Zm-27-15.87,27,15.6,27-15.6v-31.2l-27-15.6-27,15.6Z"/><path class="cls-166" d="M65.06,290.3l0,0-27.2-15.7V243.1l.06,0,27.19-15.7.06,0,27.2,15.7v31.46l-.06,0Zm-27-15.87,27,15.6,27-15.6v-31.2l-27-15.6-27,15.6Z"/><path class="cls-167" d="M119.33,290.3l-.06,0-27.19-15.7V243.1l.06,0,27.19-15.7.06,0,27.2,15.7v31.46l-.06,0Zm-27-15.87,27,15.6,27-15.6v-31.2l-27-15.6-27,15.6Z"/><path class="cls-168" d="M336.41,290.3l-.06,0-27.19-15.7V243.1l.06,0,27.19-15.7.06,0,27.19,15.7v31.46l-.06,0Zm-27-15.87,27,15.6,27-15.6v-31.2l-27-15.6-27,15.6Z"/><polygon class="cls-169" points="407.85 280.11 390.68 290.02 363.66 274.43 363.66 243.23 390.68 227.63 407.85 237.55 407.85 237.28 390.74 227.4 390.68 227.36 363.48 243.06 363.43 243.09 363.43 274.56 390.62 290.26 390.68 290.3 407.85 280.38 407.85 280.11"/><polygon class="cls-170" points="-16.28 274.39 -16.34 274.36 -20.15 276.56 -20.15 276.83 -16.34 274.63 10.68 290.23 10.68 299.28 10.91 299.28 10.91 290.09 -16.28 274.39"/><polygon class="cls-171" points="10.91 299.28 10.91 290.23 37.93 274.63 64.95 290.23 64.95 299.28 65.18 299.28 65.18 290.09 37.99 274.39 37.93 274.36 10.74 290.06 10.68 290.09 10.68 299.28 10.91 299.28"/><polygon class="cls-172" points="65.18 299.28 65.18 290.23 92.2 274.63 119.22 290.23 119.22 299.28 119.45 299.28 119.45 290.09 92.26 274.39 92.2 274.36 65 290.06 64.95 290.09 64.95 299.28 65.18 299.28"/><polygon class="cls-173" points="119.45 299.28 119.45 290.23 146.47 274.63 173.48 290.23 173.48 299.28 173.72 299.28 173.72 290.09 146.53 274.39 146.47 274.36 119.27 290.06 119.22 290.09 119.22 299.28 119.45 299.28"/><polygon class="cls-174" points="336.53 299.28 336.53 290.23 363.54 274.63 390.56 290.23 390.56 299.28 390.79 299.28 390.79 290.09 363.6 274.39 363.54 274.36 336.35 290.06 336.29 290.09 336.29 299.28 336.53 299.28"/><polygon class="cls-175" points="407.85 280.11 390.62 290.06 390.56 290.09 390.56 299.28 390.79 299.28 390.79 290.23 407.85 280.38 407.85 280.11"/><polygon class="cls-176" points="371.69 -34.72 371.69 -2.79 336.94 17.27 302.19 -2.79 302.19 -34.72 300.97 -34.72 300.97 -2.08 336.94 18.69 372.92 -2.08 372.92 -34.72 371.69 -34.72"/><polygon class="cls-177" points="372.92 -2.79 372.92 -34.72 371.69 -34.72 371.69 -2.08 407.67 18.69 407.85 18.58 407.85 17.17 407.67 17.27 372.92 -2.79"/><path class="cls-178" d="M18.67,79.94l-36-20.77V17.63l36-20.77,36,20.77V59.17ZM-16.08,58.46,18.67,78.52,53.42,58.46V18.34L18.67-1.73-16.08,18.34Z"/><polygon class="cls-179" points="-16.69 58.11 -20.15 60.1 -20.15 61.52 -16.69 59.52 18.06 79.59 18.06 119.71 -16.69 139.78 -20.15 137.78 -20.15 139.2 -16.69 141.19 19.29 120.42 19.29 78.88 -16.69 58.11"/><path class="cls-180" d="M54,141.19l-36-20.77V78.88L54,58.11,90,78.88v41.54ZM19.29,119.71,54,139.78l34.75-20.07V79.59L54,59.52,19.29,79.59Z"/><path class="cls-181" d="M18.67,202.44l-36-20.77V140.13l36-20.77,36,20.77v41.54ZM-16.08,181,18.67,201,53.42,181V140.84L18.67,120.78l-34.75,20.06Z"/><path class="cls-182" d="M407.85,139.88l-35.54-20.52-36,20.77v41.54l36,20.77,35.54-20.52ZM372.31,201,337.56,181V140.84l34.75-20.06,34.75,20.06V181Z"/><polygon class="cls-183" points="-16.69 180.61 -20.15 182.6 -20.15 184.02 -16.69 182.03 18.06 202.09 18.06 242.22 -16.69 262.28 -20.15 260.28 -20.15 261.7 -16.69 263.69 19.29 242.92 19.29 201.38 -16.69 180.61"/><path class="cls-184" d="M54,263.7l-36-20.78V201.38l36-20.77,36,20.77v41.54ZM19.29,242.22,54,262.28l34.75-20.06V202.09L54,182,19.29,202.09Z"/><path class="cls-185" d="M336.94,263.7l-36-20.78V201.38l36-20.77,36,20.77v41.54ZM302.2,242.22l34.74,20.06,34.75-20.06V202.09L336.94,182,302.2,202.09Z"/><polygon class="cls-186" points="407.85 262.17 407.67 262.28 372.92 242.22 372.92 202.09 407.67 182.03 407.85 182.13 407.85 180.72 407.67 180.61 371.69 201.38 371.69 242.92 407.67 263.69 407.85 263.59 407.85 262.17"/><polygon class="cls-187" points="-16.08 299.28 -16.08 263.34 18.67 243.28 53.42 263.34 53.42 299.28 54.65 299.28 54.65 262.63 18.67 241.86 -17.3 262.63 -17.3 299.28 -16.08 299.28"/><polygon class="cls-188" points="54.65 299.28 54.65 263.34 89.4 243.28 124.15 263.34 124.15 299.28 125.38 299.28 125.38 262.63 89.4 241.86 53.42 262.63 53.42 299.28 54.65 299.28"/><polygon class="cls-189" points="125.38 299.28 125.38 263.34 160.13 243.28 194.88 263.34 194.88 299.28 196.1 299.28 196.1 262.63 160.13 241.86 124.15 262.63 124.15 299.28 125.38 299.28"/><polygon class="cls-190" points="196.1 299.28 196.1 263.34 230.85 243.28 265.6 263.34 265.6 299.28 266.83 299.28 266.83 262.63 230.85 241.86 194.88 262.63 194.88 299.28 196.1 299.28"/><polygon class="cls-191" points="266.83 299.28 266.83 263.34 301.58 243.28 336.33 263.34 336.33 299.28 337.56 299.28 337.56 262.63 301.58 241.86 265.6 262.63 265.6 299.28 266.83 299.28"/><polygon class="cls-192" points="407.85 299.28 407.85 262.38 372.31 241.86 336.33 262.63 336.33 299.28 337.56 299.28 337.56 263.34 372.31 243.28 407.06 263.34 407.06 299.28 407.85 299.28"/><circle class="cls-193" cx="282.14" cy="8.17" r="1.69"/><path class="cls-194" d="M390.68,11.1a2.93,2.93,0,1,0-2.93-2.93A2.93,2.93,0,0,0,390.68,11.1Z"/><path class="cls-195" d="M230.12,8.17a2.25,2.25,0,1,0-2.25,2.26A2.25,2.25,0,0,0,230.12,8.17Z"/><circle class="cls-196" cx="336.41" cy="8.17" r="1.95"/><path class="cls-197" d="M390.68,37a2.52,2.52,0,1,0,2.51,2.52A2.51,2.51,0,0,0,390.68,37Z"/><path class="cls-198" d="M9,102.17a1.78,1.78,0,1,0,1.78-1.78A1.78,1.78,0,0,0,9,102.17Z"/><circle class="cls-199" cx="282.14" cy="39.51" r="2.9"/><path class="cls-200" d="M306.26,55.17a3,3,0,1,0,3-3A3,3,0,0,0,306.26,55.17Z"/><circle class="cls-201" cx="336.41" cy="102.17" r="1.82"/><path class="cls-202" d="M309.27,84.13a2.37,2.37,0,1,0,2.37,2.37A2.37,2.37,0,0,0,309.27,84.13Z"/><circle class="cls-203" cx="336.41" cy="39.51" r="2.53"/><circle class="cls-204" cx="363.54" cy="86.5" r="3.59"/><path class="cls-205" d="M390.68,104.2a2,2,0,1,0-2-2A2,2,0,0,0,390.68,104.2Z"/><path class="cls-206" d="M363.54,58.73A3.56,3.56,0,1,0,360,55.17,3.56,3.56,0,0,0,363.54,58.73Z"/><path class="cls-207" d="M10.8,136.44a2.94,2.94,0,1,0-2.94-2.94A2.94,2.94,0,0,0,10.8,136.44Z"/><path class="cls-208" d="M66.46,133.5a1.4,1.4,0,1,0-1.4,1.4A1.39,1.39,0,0,0,66.46,133.5Z"/><circle class="cls-209" cx="92.2" cy="149.17" r="2.7"/><path class="cls-210" d="M121.94,133.5a2.61,2.61,0,1,0-2.61,2.61A2.61,2.61,0,0,0,121.94,133.5Z"/><circle class="cls-211" cx="146.47" cy="149.17" r="3.05"/><circle class="cls-212" cx="37.93" cy="149.17" r="1.28"/><path class="cls-213" d="M62.92,196.17A2.15,2.15,0,1,0,65.06,194,2.14,2.14,0,0,0,62.92,196.17Z"/><path class="cls-214" d="M37.93,177.4a3.1,3.1,0,1,0,3.1,3.1A3.1,3.1,0,0,0,37.93,177.4Z"/><circle class="cls-215" cx="146.47" cy="180.5" r="3.34"/><path class="cls-216" d="M336.41,194.49a1.68,1.68,0,1,0,1.67,1.68A1.68,1.68,0,0,0,336.41,194.49Z"/><circle class="cls-217" cx="336.41" cy="133.5" r="1.95"/><circle class="cls-218" cx="363.54" cy="149.17" r="3.82"/><path class="cls-219" d="M390.68,135.58a2.08,2.08,0,1,0-2.08-2.08A2.08,2.08,0,0,0,390.68,135.58Z"/><circle class="cls-220" cx="10.8" cy="196.17" r="2.06"/><path class="cls-221" d="M10.8,230.86a3.37,3.37,0,1,0-3.37-3.36A3.36,3.36,0,0,0,10.8,230.86Z"/><circle class="cls-222" cx="92.2" cy="180.5" r="3.52"/><path class="cls-223" d="M118,196.17a1.3,1.3,0,1,0,1.29-1.3A1.29,1.29,0,0,0,118,196.17Z"/><circle class="cls-224" cx="146.47" cy="243.16" r="2.59"/><path class="cls-225" d="M119.33,223.53a4,4,0,1,0,4,4A4,4,0,0,0,119.33,223.53Z"/><path class="cls-226" d="M338.66,227.5a2.25,2.25,0,1,0-2.25,2.25A2.25,2.25,0,0,0,338.66,227.5Z"/><path class="cls-227" d="M390.68,199.1a2.94,2.94,0,1,0-2.94-2.93A2.93,2.93,0,0,0,390.68,199.1Z"/><path class="cls-228" d="M390.68,224.57a2.93,2.93,0,1,0,2.93,2.93A2.93,2.93,0,0,0,390.68,224.57Z"/><path class="cls-229" d="M37.93,278.18a3.69,3.69,0,1,0-3.68-3.68A3.68,3.68,0,0,0,37.93,278.18Z"/><path class="cls-230" d="M37.93,240.56a2.61,2.61,0,1,0,2.61,2.6A2.6,2.6,0,0,0,37.93,240.56Z"/><path class="cls-231" d="M65.06,230.47a3,3,0,1,0-3-3A3,3,0,0,0,65.06,230.47Z"/><path class="cls-232" d="M95.59,243.16a3.4,3.4,0,1,0-3.39,3.4A3.39,3.39,0,0,0,95.59,243.16Z"/><path class="cls-233" d="M119.33,292.83a2.67,2.67,0,1,0-2.67-2.67A2.66,2.66,0,0,0,119.33,292.83Z"/><circle class="cls-234" cx="146.47" cy="274.5" r="2.82"/><path class="cls-235" d="M309.27,245.49a2.33,2.33,0,1,0-2.33-2.33A2.33,2.33,0,0,0,309.27,245.49Z"/><circle class="cls-236" cx="363.54" cy="243.16" r="2.58"/><path class="cls-237" d="M65.06,286.64a3.52,3.52,0,1,0,3.52,3.52A3.52,3.52,0,0,0,65.06,286.64Z"/><circle class="cls-238" cx="92.2" cy="274.5" r="1.57"/><path class="cls-239" d="M309.27,271.89a2.61,2.61,0,1,0,2.61,2.61A2.61,2.61,0,0,0,309.27,271.89Z"/><path class="cls-240" d="M363.54,271.78a2.72,2.72,0,1,0,2.71,2.72A2.72,2.72,0,0,0,363.54,271.78Z"/><path class="cls-241" d="M390.68,287a3.21,3.21,0,1,0,3.21,3.21A3.21,3.21,0,0,0,390.68,287Z"/></g></g></g></g></svg>